<svg xmlns="http://www.w3.org/2000/svg" xmlns:xlink="http://www.w3.org/1999/xlink" width="500" zoomAndPan="magnify" viewBox="0 0 375 374.999991" height="500" preserveAspectRatio="xMidYMid meet" version="1.0"><defs><clipPath id="4b69285684"><path d="M 214 1.875 L 375 1.875 L 375 95 L 214 95 Z M 214 1.875 " clip-rule="nonzero"/></clipPath><clipPath id="aa2f8a0afe"><path d="M 0 1.875 L 242 1.875 L 242 373.125 L 0 373.125 Z M 0 1.875 " clip-rule="nonzero"/></clipPath><clipPath id="fa3419a22f"><path d="M 352.113281 361.488281 L 356.410156 361.488281 L 356.410156 365.097656 L 352.113281 365.097656 Z M 352.113281 361.488281 " clip-rule="nonzero"/></clipPath><clipPath id="9c07381299"><path d="M 356.398438 362.773438 C 354.523438 365.773438 352.726562 365.25 352.351562 364.574219 C 351.898438 363.976562 352.273438 362.101562 352.875 361.648438 C 353.476562 361.199219 355.875 361.875 355.875 361.875 " clip-rule="nonzero"/></clipPath><clipPath id="86a4ee6259"><path d="M 0.113281 0.488281 L 4.398438 0.488281 L 4.398438 4.097656 L 0.113281 4.097656 Z M 0.113281 0.488281 " clip-rule="nonzero"/></clipPath><clipPath id="4c4bbeb7f0"><path d="M 4.398438 1.773438 C 2.523438 4.773438 0.726562 4.25 0.351562 3.574219 C -0.101562 2.976562 0.273438 1.101562 0.875 0.648438 C 1.476562 0.199219 3.875 0.875 3.875 0.875 " clip-rule="nonzero"/></clipPath><clipPath id="8086590591"><rect x="0" width="5" y="0" height="5"/></clipPath><clipPath id="8f6fbc1007"><path d="M 355.625 356.300781 L 360.25 356.300781 L 360.25 361 L 355.625 361 Z M 355.625 356.300781 " clip-rule="nonzero"/></clipPath><clipPath id="828c2ac5ce"><path d="M 355.648438 358.574219 C 357.226562 356.398438 358.199219 356.25 358.800781 356.476562 C 359.324219 356.699219 360 357.523438 360.148438 358.125 C 360.300781 358.726562 360 359.699219 359.550781 360.148438 C 359.175781 360.601562 358.199219 360.898438 357.601562 360.824219 C 356.925781 360.75 356.175781 360.074219 355.875 359.550781 C 355.648438 358.949219 355.648438 357.976562 356.023438 357.449219 C 356.324219 356.925781 357.226562 356.398438 357.824219 356.324219 C 358.273438 356.25 358.800781 356.398438 359.175781 356.699219 C 359.699219 357.074219 360.148438 357.976562 360.226562 358.574219 C 360.226562 359.101562 360.074219 359.699219 359.773438 360.148438 C 359.476562 360.523438 358.875 360.898438 358.425781 360.976562 C 357.824219 361.050781 356.851562 360.824219 356.398438 360.375 C 355.949219 360.074219 355.648438 358.949219 355.648438 358.949219 " clip-rule="nonzero"/></clipPath><clipPath id="a229fc0290"><path d="M 0.625 0.300781 L 5.25 0.300781 L 5.25 5 L 0.625 5 Z M 0.625 0.300781 " clip-rule="nonzero"/></clipPath><clipPath id="76349791a1"><path d="M 0.648438 2.574219 C 2.226562 0.398438 3.199219 0.25 3.800781 0.476562 C 4.324219 0.699219 5 1.523438 5.148438 2.125 C 5.300781 2.726562 5 3.699219 4.550781 4.148438 C 4.175781 4.601562 3.199219 4.898438 2.601562 4.824219 C 1.925781 4.75 1.175781 4.074219 0.875 3.550781 C 0.648438 2.949219 0.648438 1.976562 1.023438 1.449219 C 1.324219 0.925781 2.226562 0.398438 2.824219 0.324219 C 3.273438 0.25 3.800781 0.398438 4.175781 0.699219 C 4.699219 1.074219 5.148438 1.976562 5.226562 2.574219 C 5.226562 3.101562 5.074219 3.699219 4.773438 4.148438 C 4.476562 4.523438 3.875 4.898438 3.425781 4.976562 C 2.824219 5.050781 1.851562 4.824219 1.398438 4.375 C 0.949219 4.074219 0.648438 2.949219 0.648438 2.949219 " clip-rule="nonzero"/></clipPath><clipPath id="c2715e904e"><rect x="0" width="6" y="0" height="5"/></clipPath></defs><g clip-path="url(#4b69285684)"><path fill="#fa6018" d="M 321.441406 1.96875 L 267.851562 1.96875 L 241.085938 48.339844 L 214.292969 94.742188 L 321.441406 94.742188 L 348.207031 48.339844 L 375 1.96875 Z M 321.441406 1.96875 " fill-opacity="1" fill-rule="nonzero"/></g><g clip-path="url(#aa2f8a0afe)"><path fill="#151515" d="M 187.5 141.171875 L 160.707031 94.742188 L 133.941406 48.371094 L 107.148438 1.96875 L 0 1.96875 L 26.796875 48.371094 L 53.558594 94.742188 L 80.351562 141.140625 L 107.148438 187.546875 L 133.941406 233.945312 L 107.148438 280.347656 L 80.351562 326.71875 L 53.589844 373.121094 L 160.707031 373.121094 L 187.5 326.71875 L 214.265625 280.347656 L 241.058594 233.945312 L 214.292969 187.546875 Z M 187.5 141.171875 " fill-opacity="1" fill-rule="nonzero"/></g><g clip-path="url(#fa3419a22f)"><g clip-path="url(#9c07381299)"><g transform="matrix(1, 0, 0, 1, 352, 361)"><g clip-path="url(#8086590591)"><g clip-path="url(#86a4ee6259)"><g clip-path="url(#4c4bbeb7f0)"><rect x="-434.5" width="540" fill="#ffffff" height="539.999987" y="-443.499998" fill-opacity="1"/></g></g></g></g></g></g><g clip-path="url(#8f6fbc1007)"><g clip-path="url(#828c2ac5ce)"><g transform="matrix(1, 0, 0, 1, 355, 356)"><g clip-path="url(#c2715e904e)"><g clip-path="url(#a229fc0290)"><g clip-path="url(#76349791a1)"><rect x="-437.5" width="540" fill="#ffffff" height="539.999987" y="-438.499998" fill-opacity="1"/></g></g></g></g></g></g></svg>